<mxfile host="65bd71144e">
    <diagram id="jICdzf0zJ5MWkO5E6MjJ" name="Camera Calibration">
        <mxGraphModel dx="1204" dy="827" grid="1" gridSize="10" guides="1" tooltips="1" connect="1" arrows="1" fold="1" page="1" pageScale="1" pageWidth="850" pageHeight="1100" math="0" shadow="0">
            <root>
                <mxCell id="0"/>
                <mxCell id="1" parent="0"/>
                <mxCell id="0MFVvw6WKCpN6G0qD5gq-9" style="edgeStyle=none;html=1;" parent="1" source="0MFVvw6WKCpN6G0qD5gq-1" target="0MFVvw6WKCpN6G0qD5gq-3" edge="1">
                    <mxGeometry relative="1" as="geometry"/>
                </mxCell>
                <mxCell id="0MFVvw6WKCpN6G0qD5gq-1" value="Camera Calibration" style="rounded=0;whiteSpace=wrap;html=1;" parent="1" vertex="1">
                    <mxGeometry x="195" y="200" width="120" height="60" as="geometry"/>
                </mxCell>
                <mxCell id="0MFVvw6WKCpN6G0qD5gq-10" style="edgeStyle=none;html=1;exitX=1;exitY=0.5;exitDx=0;exitDy=0;" parent="1" source="0MFVvw6WKCpN6G0qD5gq-3" target="0MFVvw6WKCpN6G0qD5gq-4" edge="1">
                    <mxGeometry relative="1" as="geometry"/>
                </mxCell>
                <mxCell id="0MFVvw6WKCpN6G0qD5gq-3" value="Creation of Calibration &lt;br&gt;Points&lt;br&gt;&amp;nbsp;in Space" style="shape=step;perimeter=stepPerimeter;whiteSpace=wrap;html=1;fixedSize=1;direction=east;" parent="1" vertex="1">
                    <mxGeometry x="195" y="310" width="120" height="80" as="geometry"/>
                </mxCell>
                <mxCell id="0MFVvw6WKCpN6G0qD5gq-11" style="edgeStyle=none;html=1;exitX=1;exitY=0.5;exitDx=0;exitDy=0;entryX=0;entryY=0.5;entryDx=0;entryDy=0;" parent="1" source="0MFVvw6WKCpN6G0qD5gq-4" target="0MFVvw6WKCpN6G0qD5gq-5" edge="1">
                    <mxGeometry relative="1" as="geometry"/>
                </mxCell>
                <mxCell id="0MFVvw6WKCpN6G0qD5gq-4" value="Move Hexapod&lt;br&gt;&amp;nbsp;to the next &lt;br&gt;Point" style="shape=step;perimeter=stepPerimeter;whiteSpace=wrap;html=1;fixedSize=1;direction=east;" parent="1" vertex="1">
                    <mxGeometry x="315" y="310" width="120" height="80" as="geometry"/>
                </mxCell>
                <mxCell id="0MFVvw6WKCpN6G0qD5gq-7" style="edgeStyle=none;html=1;entryX=0.5;entryY=1;entryDx=0;entryDy=0;" parent="1" source="0MFVvw6WKCpN6G0qD5gq-5" target="0MFVvw6WKCpN6G0qD5gq-6" edge="1">
                    <mxGeometry relative="1" as="geometry"/>
                </mxCell>
                <mxCell id="0MFVvw6WKCpN6G0qD5gq-13" style="edgeStyle=none;html=1;exitX=1;exitY=0.5;exitDx=0;exitDy=0;" parent="1" source="0MFVvw6WKCpN6G0qD5gq-5" target="0MFVvw6WKCpN6G0qD5gq-12" edge="1">
                    <mxGeometry relative="1" as="geometry"/>
                </mxCell>
                <mxCell id="0MFVvw6WKCpN6G0qD5gq-5" value="Take an &lt;br&gt;Image" style="shape=step;perimeter=stepPerimeter;whiteSpace=wrap;html=1;fixedSize=1;direction=east;" parent="1" vertex="1">
                    <mxGeometry x="435" y="310" width="120" height="80" as="geometry"/>
                </mxCell>
                <mxCell id="0MFVvw6WKCpN6G0qD5gq-8" style="edgeStyle=orthogonalEdgeStyle;html=1;entryX=0.5;entryY=1;entryDx=0;entryDy=0;exitX=1;exitY=0.5;exitDx=0;exitDy=0;" parent="1" source="0MFVvw6WKCpN6G0qD5gq-6" target="0MFVvw6WKCpN6G0qD5gq-4" edge="1">
                    <mxGeometry relative="1" as="geometry"/>
                </mxCell>
                <mxCell id="0MFVvw6WKCpN6G0qD5gq-6" value="Repeat" style="shape=step;perimeter=stepPerimeter;whiteSpace=wrap;html=1;fixedSize=1;direction=west;" parent="1" vertex="1">
                    <mxGeometry x="435" y="420" width="120" height="80" as="geometry"/>
                </mxCell>
                <mxCell id="0MFVvw6WKCpN6G0qD5gq-15" style="edgeStyle=none;html=1;exitX=1;exitY=0.5;exitDx=0;exitDy=0;entryX=0;entryY=0.5;entryDx=0;entryDy=0;" parent="1" source="0MFVvw6WKCpN6G0qD5gq-12" target="0MFVvw6WKCpN6G0qD5gq-14" edge="1">
                    <mxGeometry relative="1" as="geometry"/>
                </mxCell>
                <mxCell id="0MFVvw6WKCpN6G0qD5gq-12" value="Detect &lt;br&gt;Checkerboard Corners in &lt;br&gt;all Images" style="shape=step;perimeter=stepPerimeter;whiteSpace=wrap;html=1;fixedSize=1;direction=east;" parent="1" vertex="1">
                    <mxGeometry x="555" y="310" width="120" height="80" as="geometry"/>
                </mxCell>
                <mxCell id="0MFVvw6WKCpN6G0qD5gq-14" value="Determine &lt;br&gt;Calibration &lt;br&gt;Matrices" style="shape=step;perimeter=stepPerimeter;whiteSpace=wrap;html=1;fixedSize=1;direction=east;" parent="1" vertex="1">
                    <mxGeometry x="675" y="310" width="120" height="80" as="geometry"/>
                </mxCell>
            </root>
        </mxGraphModel>
    </diagram>
    <diagram id="GxKOahpzeIrcdincNapO" name="Measurement Grid">
        <mxGraphModel dx="1693" dy="579" grid="1" gridSize="10" guides="1" tooltips="1" connect="1" arrows="1" fold="1" page="1" pageScale="1" pageWidth="850" pageHeight="1100" math="0" shadow="0">
            <root>
                <mxCell id="0"/>
                <mxCell id="1" parent="0"/>
                <mxCell id="FAFWOCsEVncuKwZn0aYZ-2" value="Beam Measurement" style="rounded=0;whiteSpace=wrap;html=1;direction=west;movable=1;resizable=1;rotatable=1;deletable=1;editable=1;locked=0;connectable=1;" parent="1" vertex="1">
                    <mxGeometry x="-670" y="270" width="120" height="60" as="geometry"/>
                </mxCell>
                <mxCell id="FAFWOCsEVncuKwZn0aYZ-1" style="edgeStyle=elbowEdgeStyle;elbow=vertical;html=1;movable=1;resizable=1;rotatable=1;deletable=1;editable=1;locked=0;connectable=1;entryX=0.5;entryY=0;entryDx=0;entryDy=0;" parent="1" source="FAFWOCsEVncuKwZn0aYZ-2" target="FAFWOCsEVncuKwZn0aYZ-4" edge="1">
                    <mxGeometry relative="1" as="geometry"/>
                </mxCell>
                <mxCell id="c6YOW3yBWRRtEIzh4Q7Z-5" style="edgeStyle=none;html=1;exitX=1;exitY=0.5;exitDx=0;exitDy=0;entryX=0;entryY=0.5;entryDx=0;entryDy=0;" edge="1" parent="1" source="FAFWOCsEVncuKwZn0aYZ-4" target="FAFWOCsEVncuKwZn0aYZ-6">
                    <mxGeometry relative="1" as="geometry"/>
                </mxCell>
                <mxCell id="FAFWOCsEVncuKwZn0aYZ-4" value="Path/Grid &lt;br&gt;Creation" style="shape=step;perimeter=stepPerimeter;whiteSpace=wrap;html=1;fixedSize=1;direction=east;movable=1;resizable=1;rotatable=1;deletable=1;editable=1;locked=0;connectable=1;" parent="1" vertex="1">
                    <mxGeometry x="-670" y="370" width="120" height="80" as="geometry"/>
                </mxCell>
                <mxCell id="c6YOW3yBWRRtEIzh4Q7Z-4" style="edgeStyle=none;html=1;exitX=1;exitY=0.5;exitDx=0;exitDy=0;entryX=0;entryY=0.5;entryDx=0;entryDy=0;" edge="1" parent="1" source="FAFWOCsEVncuKwZn0aYZ-6" target="FAFWOCsEVncuKwZn0aYZ-8">
                    <mxGeometry relative="1" as="geometry"/>
                </mxCell>
                <mxCell id="FAFWOCsEVncuKwZn0aYZ-6" value="Move the &lt;br&gt;Hexapod to &lt;br&gt;the next &lt;br&gt;point in the path" style="shape=step;perimeter=stepPerimeter;whiteSpace=wrap;html=1;fixedSize=1;direction=east;movable=1;resizable=1;rotatable=1;deletable=1;editable=1;locked=0;connectable=1;" parent="1" vertex="1">
                    <mxGeometry x="-560" y="370" width="120" height="80" as="geometry"/>
                </mxCell>
                <mxCell id="FAFWOCsEVncuKwZn0aYZ-7" value="" style="edgeStyle=elbowEdgeStyle;elbow=vertical;html=1;movable=1;resizable=1;rotatable=1;deletable=1;editable=1;locked=0;connectable=1;exitX=1;exitY=0.5;exitDx=0;exitDy=0;entryX=0;entryY=0.5;entryDx=0;entryDy=0;" parent="1" source="FAFWOCsEVncuKwZn0aYZ-8" target="FAFWOCsEVncuKwZn0aYZ-12" edge="1">
                    <mxGeometry relative="1" as="geometry"/>
                </mxCell>
                <mxCell id="c6YOW3yBWRRtEIzh4Q7Z-2" style="edgeStyle=none;html=1;exitX=0.5;exitY=1;exitDx=0;exitDy=0;entryX=0.5;entryY=1;entryDx=0;entryDy=0;" edge="1" parent="1" source="FAFWOCsEVncuKwZn0aYZ-8" target="FAFWOCsEVncuKwZn0aYZ-10">
                    <mxGeometry relative="1" as="geometry"/>
                </mxCell>
                <mxCell id="FAFWOCsEVncuKwZn0aYZ-8" value="Take a &lt;br&gt;measurement &lt;br&gt;with the Sensor" style="shape=step;perimeter=stepPerimeter;whiteSpace=wrap;html=1;fixedSize=1;direction=east;movable=1;resizable=1;rotatable=1;deletable=1;editable=1;locked=0;connectable=1;" parent="1" vertex="1">
                    <mxGeometry x="-450" y="370" width="120" height="80" as="geometry"/>
                </mxCell>
                <mxCell id="c6YOW3yBWRRtEIzh4Q7Z-3" style="edgeStyle=orthogonalEdgeStyle;html=1;exitX=1;exitY=0.5;exitDx=0;exitDy=0;entryX=0.5;entryY=1;entryDx=0;entryDy=0;" edge="1" parent="1" source="FAFWOCsEVncuKwZn0aYZ-10" target="FAFWOCsEVncuKwZn0aYZ-6">
                    <mxGeometry relative="1" as="geometry"/>
                </mxCell>
                <mxCell id="FAFWOCsEVncuKwZn0aYZ-10" value="Repeat" style="shape=step;perimeter=stepPerimeter;whiteSpace=wrap;html=1;fixedSize=1;direction=west;movable=1;resizable=1;rotatable=1;deletable=1;editable=1;locked=0;connectable=1;" parent="1" vertex="1">
                    <mxGeometry x="-450" y="480" width="120" height="80" as="geometry"/>
                </mxCell>
                <mxCell id="FAFWOCsEVncuKwZn0aYZ-12" value="Store the Measurement&lt;br&gt;&amp;nbsp;Data" style="shape=step;perimeter=stepPerimeter;whiteSpace=wrap;html=1;fixedSize=1;direction=east;movable=1;resizable=1;rotatable=1;deletable=1;editable=1;locked=0;connectable=1;" parent="1" vertex="1">
                    <mxGeometry x="-340" y="370" width="120" height="80" as="geometry"/>
                </mxCell>
            </root>
        </mxGraphModel>
    </diagram>
    <diagram id="ljdNcH8xA8z8FCVJddCt" name="Alignment">
        <mxGraphModel dx="1054" dy="724" grid="1" gridSize="10" guides="1" tooltips="1" connect="1" arrows="1" fold="1" page="1" pageScale="1" pageWidth="850" pageHeight="1100" math="0" shadow="0">
            <root>
                <mxCell id="0"/>
                <mxCell id="1" parent="0"/>
                <mxCell id="Ze5oQFnCMCGNGDbKbs9F-1" style="edgeStyle=elbowEdgeStyle;html=1;exitX=0.5;exitY=0;exitDx=0;exitDy=0;entryX=0.5;entryY=0;entryDx=0;entryDy=0;elbow=vertical;" edge="1" parent="1" source="03PqXTAdte_fFiXdzlX0-2" target="03PqXTAdte_fFiXdzlX0-4">
                    <mxGeometry relative="1" as="geometry"/>
                </mxCell>
                <mxCell id="03PqXTAdte_fFiXdzlX0-2" value="Alignment of Sensor and Probe" style="rounded=0;whiteSpace=wrap;html=1;direction=west;" parent="1" vertex="1">
                    <mxGeometry x="180" y="190" width="120" height="60" as="geometry"/>
                </mxCell>
                <mxCell id="03PqXTAdte_fFiXdzlX0-3" style="edgeStyle=none;html=1;exitX=1;exitY=0.5;exitDx=0;exitDy=0;" parent="1" source="03PqXTAdte_fFiXdzlX0-4" target="03PqXTAdte_fFiXdzlX0-6" edge="1">
                    <mxGeometry relative="1" as="geometry"/>
                </mxCell>
                <mxCell id="03PqXTAdte_fFiXdzlX0-4" value="Camera &lt;br&gt;Calibration" style="shape=step;perimeter=stepPerimeter;whiteSpace=wrap;html=1;fixedSize=1;direction=east;" parent="1" vertex="1">
                    <mxGeometry x="180" y="290" width="120" height="80" as="geometry"/>
                </mxCell>
                <mxCell id="03PqXTAdte_fFiXdzlX0-5" style="edgeStyle=none;html=1;exitX=1;exitY=0.5;exitDx=0;exitDy=0;entryX=0;entryY=0.5;entryDx=0;entryDy=0;" parent="1" source="03PqXTAdte_fFiXdzlX0-6" target="03PqXTAdte_fFiXdzlX0-8" edge="1">
                    <mxGeometry relative="1" as="geometry"/>
                </mxCell>
                <mxCell id="03PqXTAdte_fFiXdzlX0-6" value="Marker &lt;br&gt;Detection" style="shape=step;perimeter=stepPerimeter;whiteSpace=wrap;html=1;fixedSize=1;direction=east;" parent="1" vertex="1">
                    <mxGeometry x="290" y="290" width="120" height="80" as="geometry"/>
                </mxCell>
                <mxCell id="Ze5oQFnCMCGNGDbKbs9F-2" style="edgeStyle=none;html=1;exitX=1;exitY=0.5;exitDx=0;exitDy=0;" edge="1" parent="1" source="03PqXTAdte_fFiXdzlX0-8" target="03PqXTAdte_fFiXdzlX0-10">
                    <mxGeometry relative="1" as="geometry"/>
                </mxCell>
                <mxCell id="03PqXTAdte_fFiXdzlX0-8" value="Marker Pose Estimation" style="shape=step;perimeter=stepPerimeter;whiteSpace=wrap;html=1;fixedSize=1;direction=east;" parent="1" vertex="1">
                    <mxGeometry x="400" y="290" width="120" height="80" as="geometry"/>
                </mxCell>
                <mxCell id="Ze5oQFnCMCGNGDbKbs9F-3" style="edgeStyle=none;html=1;exitX=1;exitY=0.5;exitDx=0;exitDy=0;entryX=0;entryY=0.5;entryDx=0;entryDy=0;" edge="1" parent="1" source="03PqXTAdte_fFiXdzlX0-10" target="03PqXTAdte_fFiXdzlX0-12">
                    <mxGeometry relative="1" as="geometry"/>
                </mxCell>
                <mxCell id="03PqXTAdte_fFiXdzlX0-10" value="Probe Tip &lt;br&gt;Detection" style="shape=step;perimeter=stepPerimeter;whiteSpace=wrap;html=1;fixedSize=1;direction=east;" parent="1" vertex="1">
                    <mxGeometry x="510" y="290" width="120" height="80" as="geometry"/>
                </mxCell>
                <mxCell id="Ze5oQFnCMCGNGDbKbs9F-4" style="edgeStyle=none;html=1;exitX=1;exitY=0.5;exitDx=0;exitDy=0;" edge="1" parent="1" source="03PqXTAdte_fFiXdzlX0-12" target="03PqXTAdte_fFiXdzlX0-13">
                    <mxGeometry relative="1" as="geometry"/>
                </mxCell>
                <mxCell id="03PqXTAdte_fFiXdzlX0-12" value="Alignment &lt;br&gt;Path &lt;br&gt;Calculation" style="shape=step;perimeter=stepPerimeter;whiteSpace=wrap;html=1;fixedSize=1;direction=east;" parent="1" vertex="1">
                    <mxGeometry x="620" y="290" width="120" height="80" as="geometry"/>
                </mxCell>
                <mxCell id="03PqXTAdte_fFiXdzlX0-13" value="Hexapod &lt;br&gt;Movement" style="shape=step;perimeter=stepPerimeter;whiteSpace=wrap;html=1;fixedSize=1;direction=east;" parent="1" vertex="1">
                    <mxGeometry x="730" y="290" width="120" height="80" as="geometry"/>
                </mxCell>
            </root>
        </mxGraphModel>
    </diagram>
    <diagram id="3T4Qdd7YT65RGS-o1B6s" name="Beam Trajectory Determination">
        <mxGraphModel dx="2958" dy="1448" grid="1" gridSize="10" guides="1" tooltips="1" connect="1" arrows="1" fold="1" page="1" pageScale="1" pageWidth="850" pageHeight="1100" math="0" shadow="0">
            <root>
                <mxCell id="0"/>
                <mxCell id="1" parent="0"/>
                <mxCell id="2" style="edgeStyle=elbowEdgeStyle;elbow=vertical;html=1;" parent="1" source="3" target="61" edge="1">
                    <mxGeometry relative="1" as="geometry"/>
                </mxCell>
                <mxCell id="3" value="Beam Trajectory Measurement" style="rounded=0;whiteSpace=wrap;html=1;" parent="1" vertex="1">
                    <mxGeometry x="-560" y="275" width="120" height="60" as="geometry"/>
                </mxCell>
                <mxCell id="6" style="edgeStyle=elbowEdgeStyle;elbow=vertical;html=1;" parent="1" source="7" target="45" edge="1">
                    <mxGeometry relative="1" as="geometry"/>
                </mxCell>
                <mxCell id="7" value="Quadrant Search" style="rounded=0;whiteSpace=wrap;html=1;" parent="1" vertex="1">
                    <mxGeometry x="-680" y="410" width="120" height="60" as="geometry"/>
                </mxCell>
                <mxCell id="8" value="Refinement Grid Search" style="rounded=0;whiteSpace=wrap;html=1;" parent="1" vertex="1">
                    <mxGeometry x="-440" y="410" width="120" height="60" as="geometry"/>
                </mxCell>
                <mxCell id="9" style="edgeStyle=elbowEdgeStyle;elbow=vertical;html=1;" parent="1" source="50" target="27" edge="1">
                    <mxGeometry relative="1" as="geometry"/>
                </mxCell>
                <mxCell id="16" value="Calculate Beam Trajectory from all Center Coordinates&amp;nbsp;" style="rounded=0;whiteSpace=wrap;html=1;" parent="1" vertex="1">
                    <mxGeometry x="-560" y="1030" width="120" height="60" as="geometry"/>
                </mxCell>
                <mxCell id="17" style="edgeStyle=elbowEdgeStyle;elbow=vertical;html=1;exitX=0;exitY=0.5;exitDx=0;exitDy=0;" parent="1" source="19" target="16" edge="1">
                    <mxGeometry relative="1" as="geometry">
                        <mxPoint x="-500" y="1010" as="sourcePoint"/>
                    </mxGeometry>
                </mxCell>
                <mxCell id="18" value="" style="edgeStyle=elbowEdgeStyle;elbow=vertical;html=1;" parent="1" source="19" target="22" edge="1">
                    <mxGeometry relative="1" as="geometry"/>
                </mxCell>
                <mxCell id="19" value="Store Center Coordinates" style="shape=step;perimeter=stepPerimeter;whiteSpace=wrap;html=1;fixedSize=1;direction=north;" parent="1" vertex="1">
                    <mxGeometry x="-540" y="880" width="80" height="120" as="geometry"/>
                </mxCell>
                <mxCell id="20" style="edgeStyle=orthogonalEdgeStyle;elbow=vertical;html=1;entryX=1;entryY=0.5;entryDx=0;entryDy=0;exitX=1;exitY=0.5;exitDx=0;exitDy=0;" parent="1" source="22" target="7" edge="1">
                    <mxGeometry relative="1" as="geometry"/>
                </mxCell>
                <mxCell id="21" style="edgeStyle=orthogonalEdgeStyle;elbow=vertical;html=1;entryX=0;entryY=0.5;entryDx=0;entryDy=0;exitX=1;exitY=0.5;exitDx=0;exitDy=0;" parent="1" source="22" target="8" edge="1">
                    <mxGeometry relative="1" as="geometry"/>
                </mxCell>
                <mxCell id="22" value="Move To Next Plane" style="shape=step;perimeter=stepPerimeter;whiteSpace=wrap;html=1;fixedSize=1;direction=north;" parent="1" vertex="1">
                    <mxGeometry x="-540" y="470" width="80" height="120" as="geometry"/>
                </mxCell>
                <mxCell id="23" style="edgeStyle=elbowEdgeStyle;elbow=vertical;html=1;exitX=1;exitY=0.5;exitDx=0;exitDy=0;" parent="1" source="27" target="19" edge="1">
                    <mxGeometry relative="1" as="geometry"/>
                </mxCell>
                <mxCell id="24" value="Y" style="edgeLabel;html=1;align=center;verticalAlign=middle;resizable=0;points=[];" parent="23" vertex="1" connectable="0">
                    <mxGeometry x="-0.0638" relative="1" as="geometry">
                        <mxPoint as="offset"/>
                    </mxGeometry>
                </mxCell>
                <mxCell id="25" style="edgeStyle=orthogonalEdgeStyle;html=1;exitX=0;exitY=0.5;exitDx=0;exitDy=0;entryX=0;entryY=0.5;entryDx=0;entryDy=0;" parent="1" source="27" target="29" edge="1">
                    <mxGeometry relative="1" as="geometry"/>
                </mxCell>
                <mxCell id="26" value="N" style="edgeLabel;html=1;align=center;verticalAlign=middle;resizable=0;points=[];" parent="25" vertex="1" connectable="0">
                    <mxGeometry x="-0.6959" y="-2" relative="1" as="geometry">
                        <mxPoint x="27" y="2" as="offset"/>
                    </mxGeometry>
                </mxCell>
                <mxCell id="27" value="Termination Criteria Reached?" style="ellipse;whiteSpace=wrap;html=1;aspect=fixed;" parent="1" vertex="1">
                    <mxGeometry x="-660" y="950" width="80" height="80" as="geometry"/>
                </mxCell>
                <mxCell id="28" style="edgeStyle=orthogonalEdgeStyle;elbow=vertical;html=1;entryX=0.5;entryY=1;entryDx=0;entryDy=0;exitX=1;exitY=0.5;exitDx=0;exitDy=0;" parent="1" source="29" target="45" edge="1">
                    <mxGeometry relative="1" as="geometry"/>
                </mxCell>
                <mxCell id="29" value="Loop Back" style="shape=step;perimeter=stepPerimeter;whiteSpace=wrap;html=1;fixedSize=1;direction=north;" parent="1" vertex="1">
                    <mxGeometry x="-770" y="690" width="80" height="120" as="geometry"/>
                </mxCell>
                <mxCell id="34" style="edgeStyle=elbowEdgeStyle;elbow=vertical;html=1;" parent="1" source="8" target="39" edge="1">
                    <mxGeometry relative="1" as="geometry"/>
                </mxCell>
                <mxCell id="35" value="" style="group" parent="1" vertex="1" connectable="0">
                    <mxGeometry x="-420" y="480" width="80" height="450" as="geometry"/>
                </mxCell>
                <mxCell id="36" value="" style="edgeStyle=elbowEdgeStyle;elbow=vertical;html=1;" parent="35" source="37" target="41" edge="1">
                    <mxGeometry relative="1" as="geometry"/>
                </mxCell>
                <mxCell id="37" value="Measure each point&amp;nbsp;" style="shape=step;perimeter=stepPerimeter;whiteSpace=wrap;html=1;fixedSize=1;direction=south;" parent="35" vertex="1">
                    <mxGeometry y="110" width="80" height="120" as="geometry"/>
                </mxCell>
                <mxCell id="38" style="edgeStyle=elbowEdgeStyle;elbow=vertical;html=1;entryX=0;entryY=0.5;entryDx=0;entryDy=0;" parent="35" source="39" target="37" edge="1">
                    <mxGeometry relative="1" as="geometry"/>
                </mxCell>
                <mxCell id="39" value="Create a Grid&lt;br&gt;around an initial center estimate" style="shape=step;perimeter=stepPerimeter;whiteSpace=wrap;html=1;fixedSize=1;direction=south;" parent="35" vertex="1">
                    <mxGeometry width="80" height="120" as="geometry"/>
                </mxCell>
                <mxCell id="40" value="" style="edgeStyle=elbowEdgeStyle;elbow=vertical;html=1;" parent="35" source="41" target="42" edge="1">
                    <mxGeometry relative="1" as="geometry"/>
                </mxCell>
                <mxCell id="41" value="Set the Center as the point with the highest&lt;br&gt;Intensity" style="shape=step;perimeter=stepPerimeter;whiteSpace=wrap;html=1;fixedSize=1;direction=south;" parent="35" vertex="1">
                    <mxGeometry y="220" width="80" height="120" as="geometry"/>
                </mxCell>
                <mxCell id="42" value="Half the grid size but keep the amount of points constant" style="shape=step;perimeter=stepPerimeter;whiteSpace=wrap;html=1;fixedSize=1;direction=south;" parent="35" vertex="1">
                    <mxGeometry y="330" width="80" height="120" as="geometry"/>
                </mxCell>
                <mxCell id="43" value="" style="group" parent="1" vertex="1" connectable="0">
                    <mxGeometry x="-660" y="480" width="80" height="450" as="geometry"/>
                </mxCell>
                <mxCell id="44" value="" style="edgeStyle=elbowEdgeStyle;elbow=vertical;html=1;" parent="43" source="45" target="47" edge="1">
                    <mxGeometry relative="1" as="geometry"/>
                </mxCell>
                <mxCell id="45" value="&lt;font style=&quot;font-size: 8px;&quot;&gt;Measure 4 Corners of Rectangle around the center&lt;/font&gt;" style="shape=step;perimeter=stepPerimeter;whiteSpace=wrap;html=1;fixedSize=1;direction=south;" parent="43" vertex="1">
                    <mxGeometry width="80" height="120" as="geometry"/>
                </mxCell>
                <mxCell id="46" value="" style="edgeStyle=elbowEdgeStyle;elbow=vertical;html=1;" parent="43" source="47" target="49" edge="1">
                    <mxGeometry relative="1" as="geometry"/>
                </mxCell>
                <mxCell id="47" value="&lt;font style=&quot;font-size: 8px;&quot;&gt;Determine the Corner with the Highest Intensity&lt;/font&gt;" style="shape=step;perimeter=stepPerimeter;whiteSpace=wrap;html=1;fixedSize=1;direction=south;" parent="43" vertex="1">
                    <mxGeometry y="110" width="80" height="120" as="geometry"/>
                </mxCell>
                <mxCell id="48" value="" style="edgeStyle=elbowEdgeStyle;elbow=vertical;html=1;" parent="43" source="49" target="50" edge="1">
                    <mxGeometry relative="1" as="geometry"/>
                </mxCell>
                <mxCell id="49" value="&lt;font style=&quot;font-size: 9px;&quot;&gt;Set the center to the center of the recangle spanned by the determined corner and the old center&amp;nbsp;&lt;/font&gt;" style="shape=step;perimeter=stepPerimeter;whiteSpace=wrap;html=1;fixedSize=1;direction=south;" parent="43" vertex="1">
                    <mxGeometry y="220" width="80" height="120" as="geometry"/>
                </mxCell>
                <mxCell id="50" value="&lt;font style=&quot;font-size: 9px;&quot;&gt;half the side lenghts of the new rectangle&lt;/font&gt;" style="shape=step;perimeter=stepPerimeter;whiteSpace=wrap;html=1;fixedSize=1;direction=south;" parent="43" vertex="1">
                    <mxGeometry y="330" width="80" height="120" as="geometry"/>
                </mxCell>
                <mxCell id="51" style="edgeStyle=orthogonalEdgeStyle;elbow=vertical;html=1;entryX=0;entryY=0.5;entryDx=0;entryDy=0;" parent="1" source="53" target="58" edge="1">
                    <mxGeometry relative="1" as="geometry"/>
                </mxCell>
                <mxCell id="52" value="N" style="edgeLabel;html=1;align=center;verticalAlign=middle;resizable=0;points=[];" parent="51" vertex="1" connectable="0">
                    <mxGeometry x="0.3616" y="-1" relative="1" as="geometry">
                        <mxPoint x="-61" y="111" as="offset"/>
                    </mxGeometry>
                </mxCell>
                <mxCell id="53" value="Termination Criteria Reached?" style="ellipse;whiteSpace=wrap;html=1;aspect=fixed;" parent="1" vertex="1">
                    <mxGeometry x="-420" y="950" width="80" height="80" as="geometry"/>
                </mxCell>
                <mxCell id="54" style="edgeStyle=elbowEdgeStyle;elbow=vertical;html=1;" parent="1" source="42" target="53" edge="1">
                    <mxGeometry relative="1" as="geometry"/>
                </mxCell>
                <mxCell id="55" style="edgeStyle=elbowEdgeStyle;elbow=vertical;html=1;exitX=0;exitY=0.5;exitDx=0;exitDy=0;entryX=0.07;entryY=1.004;entryDx=0;entryDy=0;entryPerimeter=0;" parent="1" source="53" target="19" edge="1">
                    <mxGeometry relative="1" as="geometry">
                        <mxPoint x="-570" y="1000" as="sourcePoint"/>
                        <mxPoint x="-530" y="1000" as="targetPoint"/>
                    </mxGeometry>
                </mxCell>
                <mxCell id="56" value="Y" style="edgeLabel;html=1;align=center;verticalAlign=middle;resizable=0;points=[];" parent="55" vertex="1" connectable="0">
                    <mxGeometry x="-0.0638" relative="1" as="geometry">
                        <mxPoint as="offset"/>
                    </mxGeometry>
                </mxCell>
                <mxCell id="57" style="edgeStyle=orthogonalEdgeStyle;elbow=vertical;html=1;entryX=0.5;entryY=0;entryDx=0;entryDy=0;" parent="1" source="58" target="39" edge="1">
                    <mxGeometry relative="1" as="geometry">
                        <Array as="points">
                            <mxPoint x="-260" y="540"/>
                        </Array>
                    </mxGeometry>
                </mxCell>
                <mxCell id="58" value="Loop Back" style="shape=step;perimeter=stepPerimeter;whiteSpace=wrap;html=1;fixedSize=1;direction=north;" parent="1" vertex="1">
                    <mxGeometry x="-300" y="690" width="80" height="120" as="geometry"/>
                </mxCell>
                <mxCell id="59" style="edgeStyle=elbowEdgeStyle;elbow=vertical;html=1;exitX=0.032;exitY=0.976;exitDx=0;exitDy=0;exitPerimeter=0;" parent="1" source="61" target="8" edge="1">
                    <mxGeometry relative="1" as="geometry"/>
                </mxCell>
                <mxCell id="60" style="edgeStyle=elbowEdgeStyle;elbow=vertical;html=1;exitX=-0.014;exitY=0.003;exitDx=0;exitDy=0;exitPerimeter=0;" parent="1" source="61" target="7" edge="1">
                    <mxGeometry relative="1" as="geometry"/>
                </mxCell>
                <mxCell id="61" value="" style="shape=xor;whiteSpace=wrap;html=1;direction=north;" parent="1" vertex="1">
                    <mxGeometry x="-525" y="350" width="50" height="40" as="geometry"/>
                </mxCell>
            </root>
        </mxGraphModel>
    </diagram>
</mxfile>